<svg xmlns="http://www.w3.org/2000/svg" viewBox="0 0 33.23 33.22"><title>Asset 1</title><g id="Layer_2" data-name="Layer 2"><g id="Layer_1-2" data-name="Layer 1"><path d="M25.51,33.22h-.1a.66.66,0,0,1-.49-.35L17.82,19.05l-5,5,.4,4.17a.66.66,0,0,1-.19.53L10.74,31a.66.66,0,0,1-.58.18.66.66,0,0,1-.49-.37l-2.36-5L2.37,23.54a.66.66,0,0,1-.18-1.07l2.33-2.33A.66.66,0,0,1,5,20l4.16.4,5-5L.36,8.28A.66.66,0,0,1,.19,7.23L3,4.43a.67.67,0,0,1,.63-.17L21,8.53l7.8-7.8a2.65,2.65,0,0,1,3.66,0,2.59,2.59,0,0,1,0,3.66l-7.8,7.8L29,29.6a.66.66,0,0,1-.17.63L26,33A.66.66,0,0,1,25.51,33.22ZM18,17.28h.1a.66.66,0,0,1,.49.35l7.11,13.8,1.9-1.9L23.3,12.15a.66.66,0,0,1,.17-.63l8.06-8.06a1.27,1.27,0,0,0,0-1.79,1.29,1.29,0,0,0-1.78,0L21.69,9.73a.67.67,0,0,1-.63.17L3.67,5.63l-1.9,1.9,13.81,7.12a.66.66,0,0,1,.17,1.06L9.92,21.51a.66.66,0,0,1-.53.19l-4.16-.4L3.79,22.75,8.1,24.8a.66.66,0,0,1,.31.31l2.05,4.32L11.91,28l-.4-4.17a.66.66,0,0,1,.19-.53l5.82-5.82A.66.66,0,0,1,18,17.28Z"/></g></g></svg>