<?xml version="1.0" encoding="utf-8"?>
<!-- Generator: Adobe Illustrator 21.1.0, SVG Export Plug-In . SVG Version: 6.00 Build 0)  -->
<svg version="1.1" id="Layer_1" xmlns="http://www.w3.org/2000/svg" xmlns:xlink="http://www.w3.org/1999/xlink" x="0px" y="0px"
	 viewBox="0 0 200 100" style="enable-background:new 0 0 200 100;" xml:space="preserve">
<style type="text/css">
	.st0{enable-background:new    ;}
</style>
<g>
	<g>
		<g>
			<path d="M197,98H3c-1.7,0-3-1.3-3-3V4c0-1.7,1.3-3,3-3h194c1.7,0,3,1.3,3,3v91C200,96.7,198.7,98,197,98z M3,3C2.4,3,2,3.4,2,4
				v91c0,0.6,0.4,1,1,1h194c0.6,0,1-0.4,1-1V4c0-0.6-0.4-1-1-1H3z"/>
		</g>
	</g>
	<g>
		<rect x="67" y="2" width="2" height="95"/>
	</g>
</g>
<g class="st0">
	<path d="M83.9,33.8v4.7h6.6v1.7h-6.6v6.5h-1.8V32.1h10.2v1.7C92.3,33.8,83.9,33.8,83.9,33.8z"/>
	<path d="M105.7,45v1.7H95.6V32.1h1.8V45H105.7z"/>
	<path d="M111,41v5.7h-1.8V41l-5.2-8.8h2.1l4,7l4-7h2.1L111,41z"/>
	<path d="M135.5,45v1.7h-10.1V32.1h1.8V45H135.5z"/>
	<path d="M140.3,46.7h-1.8V32.1h1.8V46.7z"/>
	<path d="M156.9,39.3v7.3h-1.3l-0.1-2c-0.8,1.4-2.4,2.2-4.6,2.2c-4.1,0-6.7-2.9-6.7-7.5s2.7-7.5,6.8-7.5c2.9,0,4.7,1.1,5.8,3.3
		l-1.6,0.9c-0.6-1.7-2.2-2.6-4.2-2.6c-2.9,0-4.9,2.2-4.9,5.8c0,3.7,1.7,5.8,4.9,5.8c2.4,0,4.3-1.2,4.3-3.7V41h-4.6v-1.7L156.9,39.3
		L156.9,39.3z"/>
	<path d="M172.4,32.1v14.5h-1.8v-6.5h-7.9v6.5H161V32.1h1.8v6.3h7.9v-6.3C170.6,32.1,172.4,32.1,172.4,32.1z"/>
	<path d="M187.3,33.8h-5.1v12.9h-1.8V33.8h-5.1v-1.7h11.9L187.3,33.8L187.3,33.8z"/>
</g>
<g>
	<path d="M100,68l0.9-0.6c0.3,0.9,1.2,1.2,2.2,1.2c1.1,0,1.7-0.5,1.7-1c0-0.5-0.4-0.8-1.8-1.1c-2-0.4-2.7-0.9-2.7-2.1
		c0-1.1,1.1-2.1,2.8-2.1c1.5,0,2.4,0.5,2.8,1.7l-1,0.6c-0.3-0.9-0.9-1.3-1.8-1.3c-0.9,0-1.6,0.5-1.6,1c0,0.6,0.5,0.9,1.9,1.1
		c2,0.3,2.7,0.9,2.7,2.1c0,1.2-1.1,2.1-2.9,2.1C101.7,69.6,100.5,69.1,100,68z"/>
	<path d="M107.7,60.3c0-0.5,0.3-0.8,0.8-0.8s0.8,0.3,0.8,0.8c0,0.5-0.3,0.8-0.8,0.8S107.7,60.8,107.7,60.3z M109.1,69.5H108v-7h1.1
		V69.5z"/>
	<path d="M117.8,65v4.5h-1.1v-4.1c0-1.6-0.8-2.1-1.7-2.1c-1,0-2.2,0.6-2.2,2.4v3.7h-1.1v-7h1l0.1,1.1c0.5-0.9,1.4-1.2,2.4-1.2
		C116.6,62.3,117.8,63.2,117.8,65z"/>
	<path d="M126.2,64.2l-1.1,0.5c-0.3-0.9-0.9-1.4-1.9-1.4c-1.4,0-2.2,1-2.2,2.7s0.8,2.7,2.2,2.7c1.1,0,1.8-0.5,2-1.4l1,0.4
		c-0.5,1.3-1.5,2.1-3,2.1c-2.1,0-3.4-1.4-3.4-3.6s1.3-3.6,3.4-3.6C124.8,62.3,125.7,63,126.2,64.2z"/>
	<path d="M134.2,66.4h-5.3c0.1,1.4,1,2.2,2.3,2.2c1,0,1.7-0.4,2-1l0.9,0.5c-0.5,1-1.4,1.5-2.9,1.5c-2.1,0-3.4-1.4-3.4-3.6
		s1.2-3.6,3.3-3.6c2,0,3.1,1.5,3.1,3.3C134.3,65.9,134.2,66.2,134.2,66.4z M128.9,65.4h4.2c-0.2-1.3-0.9-2.1-2.1-2.1
		C129.9,63.3,129.1,64.1,128.9,65.4z"/>
	<path d="M140.9,68.6c3.7-2.7,4.8-3.9,4.8-5.6c0-1.1-0.8-1.8-2-1.8c-1.3,0-2.1,0.9-2.2,2.3l-1-0.6c0.2-1.6,1.3-2.7,3.2-2.7
		c1.9,0,3.1,1.2,3.1,2.9c0,1.7-1.1,3.3-4.4,5.5v0c0.3,0,1.1,0,1.4,0h3.2v1.1h-6.2L140.9,68.6L140.9,68.6z"/>
	<path d="M148.9,64.8c0-3.1,1.2-4.8,3.4-4.8c2.2,0,3.4,1.7,3.4,4.8s-1.2,4.8-3.4,4.8C150.1,69.6,148.9,67.9,148.9,64.8z M154.7,64.8
		c0-2.4-0.8-3.8-2.3-3.8c-1.5,0-2.3,1.3-2.3,3.8c0,2.4,0.8,3.8,2.3,3.8C153.9,68.6,154.7,67.3,154.7,64.8z"/>
	<path d="M161,60.2v9.2h-1.1v-6.8c0-0.3,0-0.7,0-1.1c-0.6,0.6-1.5,1.1-2.4,1.3l-0.3-1c0.7-0.1,2.3-1,2.8-1.7L161,60.2L161,60.2z"/>
	<path d="M169.8,60.2v1.1c-2.3,2.5-3.3,5.1-3.3,8.2h-1.1c0-3,1.1-5.9,3.2-8.2H163v-1.1C163,60.2,169.8,60.2,169.8,60.2z"/>
</g>
<path d="M187.3,66.6h-11.9v-1.2h11.9V66.6z"/>
<path d="M94.1,66.6H82.2v-1.2h11.9C94.1,65.4,94.1,66.6,94.1,66.6z"/>
</svg>
